<?xml version="1.0" encoding="UTF-8"?>
<svg version="1.1" viewBox="0 0 2040 1908" width="510" height="477" xmlns="http://www.w3.org/2000/svg">
<path transform="translate(0)" d="m0 0h2040v1908h-2040z" fill="#FCFCFC"/>
<path transform="translate(1286,37)" d="m0 0h140l35 1 7 1 6 7 7 24 18 73 8 35 6 25 3 5 10 2 21 6h7l7 2-2 2 13 3 2-1 16 5v1l-8-1 21 7-5-2 4-1 11 4-4 1 4 2 16 6 15 6-1 2 32 14 25 11-1-4h2l2 3 18-14 14-10 15-12 13-10 12-9 19-14 18-14 16-11 4-1v-2l4 1h2l5 2v3h4l11 8 13 11 3 2v2l4 2 16 13 1 4 7 4 4 1v2l4 2 10 9 11 8 5 6-1 1 6 3 10 11h4l4 3v2l4 2 10 8 5 5 3 2v2l2 1 25 25 11 9 1 5-6 12-6 10-15 26-17 32-14 25-8 11-9 10-14 15-15 15-7 8-9 10-14 15-9 10-7 7-7 8-7 7-7 8-15 16-8 9-5 3-4 1-23 1h-49l-5-3-12-14-12-13-8-8-8-7-13-11-14-11-20-15-27-18-25-15-16-8-17-8-32-13-30-10-27-8-30-7-28-4-22-2-19-1h-62l-25 2-31 5-44 11-32 10-21 8-21 9-27 13-21 12-24 15-23 16-14 11-14 12-12 11-13 12-15 15-7 8-8 8-11 14-9 12-10 13-10 15-12 19-9 16-12 23-9 19-8 21-7 20-7 22-6 25-7 36-4 37-2 40v15l2 16v11l-9 8-10 7-16 13-13 10-18 14-14 11-12 9-17 14-13 10-12 9-15 12-17 12-8 7-11 9-7 6-5-1-1 2-2-7-9-61-7-38-4-4-11-5-50-18-36-13-27-9-15-6-8-6v-22l4-65 4-46 6-51 8-56 4-8 4-3 18-4 38-5 41-6 27-3 29-5 4-2 22-55 15-33 15-29 10-17 12-19 14-24 1-3v-9l-13-26-10-17-6-12-12-22-14-26-4-7-2-1-3-9-3-6-2 1-1-4v-9h-2v5l-2-3-1-4v-7l-2-1 28-28 8-7 12-11 9-7v-3l4-2 5-3 1-4 5-1 10-10 8-7 7-7 8-7 10-9 22-18 13-11 11-9 13-10 13-9 22 14h3l7 5v3l14 10 5 3 4 1 1 4 5 1 2 2-1 1 18 13 6 1 1 4 17 12 14 10 12 9 4 2h6l38-18 39-16 20-8 37-12 15-5 15-4 12-4 8-5 3-7 8-31 10-42 9-41 7-30 6-11 3-3 3-1 16-1z" fill="#1F3056"/>
<path transform="translate(1556,945)" d="m0 0h183l136 1v456l11 8 18 10 16 8 17 8 22 9 13 5 3 3 1 5 15 24 10 17 11 18 9 14 1 5-7 8-4 5-7 6-3 4h-2l-1 3h-2l-1 3-8 7-12 11-15 14-11 9-10 9-11 9-10 9-11 9-12 10-11 9-16 13-17 13-15 10-5-1-13-10-15-12-16-12-18-14-14-10-26-20-14-11-12-9h-7l-35 18-27 12-29 11-36 12-46 14-9 3-3 11-11 44-9 39-8 36-6 23-4 6-4 4-10 2-38 1-61 1h-53l-44-1-22-1-7-1-4-5-5-13-11-44-12-50-13-51-1-4-10-3-49-14-24-8-36-14-35-16-20-10-7-4-6 1-14 10-21 16-16 12-38 28-18 14-21 14-6 2-4 1-1-3-5-1-34-28-17-13-12-10-13-10-13-11-8-7-24-22-11-9-14-12-16-15-13-13-3-4v-7l3-5 3-9 12-21 6-12 12-22 8-14 9-18 1-4 5-5 4-9 9-18 2-3v-11l-1-4h-2l-5-9-5-4-3-4-1-4-4-5-2-9 10-6 8-4 18-11 26-15 14-9 20-13 11-7 10-7 11-7 5-4 9-5 11-8 3-1v-2l5-2v-3l4-3 6-1 4-2 13-13 5 5 3 5 2 6 2 2 1-3 3 7 2 5 7 8 4 4 5 4 9 11 6 6v2h2v2h2l7 8v2l4 2v2l4 2v2l4 2 4 4v2l4 2 7 7 2 1v2l4 2 13 12 11 8v2l4 2 7 6 1 2 5 2v3l19 13 15 9 21 12 23 12 22 10 26 10 25 8 28 7 36 7 30 4 25 2 26 1h18l31-2 39-5 23-4 29-7 28-8 27-10 19-8 30-14 23-13 22-14 19-13 16-12 10-8 8-7 1-204h-137v-152l1-25z" fill="#1F3056"/>
<path transform="translate(1697,629)" d="m0 0h2l-1 7-8 36-6 28-11 56-4 20-3 1-15-15-8-7-10-10-4 2-43 43-1 2h-2v2h-2l-2 4-25 25-7 8-3 5-4 4-2 1-4 6-5 2-12 11-15 15-8 7-22 22-8 7-17 17-8 7-14 13-11 9-14 12-12 10-8 6-17-10-35-21-14-8-24-14-24-13-7-4-18-10-6-2-1-3-5-2-16-9-3-1v-2l-5-2-19-10-7-3-9-1-1 3-2-1v-2l-15 13-13 12-14 14-8 7-9 9-8 7-28 24-10 9-8 7-11 10-11 9-9 8-14 11-14 12-11 9-13 10-11 9-7 5-5 5-27 21-9 6-1 2 2 1-10 5-9 7-6 5-6 4h-2v2l2 1-9 4-3 2 2 2-7 2-6 4-1 3-8 4h-2v2l2 1-10 4-12 9h-2l1 3-7 3-4 2v3l-9 4-6 5-10 7-12 8-11 8-21 14v2l-7 3-5 3 1 2-7 2-10 7-11 7-10 6 1 2-8 3-16 10h-2v2l2 1-11 4-14 9h-2v2l3 1-11 3-11 7-14 8-5 3h-2v2l3 1-9 2-7 4v2l-11 4-5 2v2l-12 6-1 2-11 4-2 2 2 2-10 2-7 3-1 2 3 1-2 1-10 1-5 3h-2v2h6l-3 2-12 1-1 2-3 2 3 2-12 2-2 2-5 1 4 3-5 1-8 1-2 2-5 1 1 1 3 2-5 1-9 1-1 2-5 1-26 13-10 4-27 12-37 16-23 9-27 10-41 14-43 12-48 12-34 7-34 6-2 1-5 13-9 14-8 7-12 6-13 2-13-2-12-5-10-9-7-11-3-8-1-7v-9l2-12 5-10 9-10 10-7 9-3h19l11 4 10 7 9 9 6 8h7l45-11 28-8 35-11 37-13 35-14 29-12 31-13 26-12 29-14 20-10 22-12 29-16 24-14 20-12 19-12 26-16 23-15 19-12 13-9 16-11 43-30 18-13 17-12 13-10 11-8 13-10 18-13 10-8v-3l4-2v2l18-14 8-7 12-9 11-9 10-8 10-9 14-11 16-13 14-12 11-9 13-11 11-9 10-9 8-7 11-10 2-1v-3l4-1 5-4v-3l5-1 15-14 8-7 16-15 8-8 8-7 14-14 8-7 3-4 2-2h2l3-4 6-7 6-6h2v-2h2l2-4 2 1v1l6-6v-3l7-3 28-28 7-8 9-9 9-12h3 3l8 3-1 3h-3l8 4 6 1v2l26 13 22 12 23 12 22 12 20 10 42 22 16 9 28 15 6 2 2-4 1 2-1 2 9-6 8-8 8-7 10-10 8-7 10-9 11-9 13-12 8-7 10-9 14-14 8-7 32-32 5-4 35-35 3-4h2l2-4 9-9 1-2v-9l-9-10-16-16-8-5v-2l8-2 9-1 11-3 5-2 18-4 6-1 3-2 9-1 8-3 12-2v-2l12-3 13-4 27-9z" fill="#1F3056"/>
<path transform="translate(1697,629)" d="m0 0h2l-1 7-8 36-6 28-11 56-4 20-3 1-15-15-8-7-10-10-4 2-43 43-1 2h-2v2h-2l-2 4-25 25-7 8-3 5-4 4-2 1-4 6-5 2-12 11-15 15-8 7-22 22-8 7-17 17-8 7-14 13-11 9-14 12-12 10-8 6-17-10-35-21-14-8-24-14-24-13-7-4-18-10-6-2-1-3-5-2-16-9-3-1v-2l-5-2-19-10-7-3-9-1-1 3-2-1v-2l-15 13-13 12-14 14-8 7-9 9-8 7-28 24-10 9-8 7-11 10-11 9-9 8-14 11-14 12-11 9-13 10-11 9-7 5-5 5-27 21-9 6-1 2 2 1-10 5-9 7-6 5-6 4h-2v2l2 1-9 4-3 2 2 2-7 2-6 4-1 3-8 4h-2v2l2 1-10 4-12 9h-2l1 3-7 3-4 2v3l-9 4-6 5-10 7-12 8-11 8-21 14v2l-7 3-5 3 1 2-7 2-10 7-11 7-10 6 1 2-8 3-16 10h-2v2l2 1-11 4-14 9h-2v2l3 1-11 3-11 7-14 8-5 3h-2v2l3 1-9 2-7 4v2l-11 4-5 2v2l-12 6-1 2-11 4-2 2 2 2-10 2-7 3-1 2 3 1-2 1-10 1-5 3h-2v2h6l-3 2-12 1-1 2-3 2 3 2-12 2-2 2-5 1 4 3-5 1-8 1-2 2-5 1 1 1 3 2-5 1-9 1-1 2-5 1-26 13-10 4-27 12-37 16-23 9-27 10-41 14-43 12-48 12-34 7-34 6-2 1-5 13-9 14-8 7-12 6-13 2-13-2-12-5-10-9-7-11-3-8-1-7v-9l2-12 5-10 9-10 10-7 9-3h19l11 4 10 7 9 9 6 8h7l45-11 28-8 35-11 37-13 35-14 29-12 31-13 26-12 29-14 20-10 22-12 29-16 24-14 20-12 19-12 26-16 23-15 19-12 13-9 16-11 43-30 18-13 17-12 13-10 11-8 13-10 18-13 10-8v-3l4-2v2l18-14 8-7 12-9 11-9 10-8 10-9 14-11 16-13 14-12 11-9 13-11 11-9 10-9 8-7 11-10 2-1v-3l4-1 5-4v-3l5-1 15-14 8-7 16-15 8-8 8-7 14-14 8-7 3-4 2-2h2l3-4 6-7 6-6h2v-2h2l2-4 2 1v1l6-6v-3l7-3 28-28 7-8 9-9 9-12h3 3l8 3-1 3h-3l8 4 6 1v2l26 13 22 12 23 12 22 12 20 10 42 22 16 9 28 15 6 2 2-4 1 2-1 2 9-6 8-8 8-7 10-10 8-7 10-9 11-9 13-12 8-7 10-9 14-14 8-7 32-32 5-4 35-35 3-4h2l2-4 9-9 1-2v-9l-9-10-16-16-8-5v-2l8-2 9-1 11-3 5-2 18-4 6-1 3-2 9-1 8-3 12-2v-2l12-3 13-4 27-9zm-34 22-9 3-11 3-7 2-9 3-24 7-8 3-7 3-3 3v8l4 5 1 4h2l1 5 2 7-3 12-6 9-1 3h-2l-6 8h-2l-6 7-5 5-5 4v3l-4 2-5 5-4 3v2l-3 1v2l-4 2-4 4v2l-4 2-5 5-7 6v2l-4 1-7 8-5 4v2l-4 2v2l-4 1-5 5-1 3h-2v2h-2v2l-4 2-8 7v2l-3 1v2h-2v2l-5 2v2l-5 2-2 2-2 1v3h-3l-10 10-7 5-5 6-2 1v2l-4 1-2 3-5 3-9 8-1 3h-2v2l-5 2v2l-6 2-7 4v2l-5 1h-3l-6-2-10-2-7-4-9-6-9-4-10-6h-2v-2l-7-3-8-4-4-1v-2l-19-9-8-5-13-6-16-8-5-1v-2l-11-6-4-3-12-6-17-9-12-5-5-4-14-7-2-2-7-3h-5l-5 1-1 2-4 2-5 6-2 1v2h-2l-4 5v2l-3 1-5 6-6 4-3 4-1 3-4 1-5 6h-2l-6 7v2l-4 2-10 9-7 7-10 8v3l-4 2-1 3h-3v2l-4 2v2l-4 1-4 4v3l-4 1-4 5v2l-4 1v2l-4 2v2l-4 1-6 7-2 1v2h-2v2h-2v2h-2v2h-2v2l-8 4-4 5-2 1v2h-2v2l-7 1-3 5v2l-5 1v2l-2 1-5 5h-3l-4 7-4 1-5 6-3 1-4 4v2l-5 2-4 5-2 1v2l-5 1v2h-2v2h-2v3l-6 1v2h-2l-2 4-6 2-1 4-3 1-2 2-3 1-1 4-5 2-3 1v3h-2l-5 5v2l-3-1v2l-2 1-1 4h-7l-5 7-6 1v2h-2v2l-4 2 1 2-5 1-3-1-1 7-6 1-2 7-8 2-4 6-7 3 1 4-4 2-9 1 1 6-8 1-1 7-9 2v3h-2l-1 4h-7l-5 6 1 3-5-1h-4l1 8h-8l-1 6-8 3-3 2v3h-2v2h-7l-4 2 1 6-7 1-1 6-8 1v2h-2l-4 5-10 2-1 4 1 3-5 1-4 3v2l-7 2-3 1-2 4-2 1v2h-5v2h-2l-2 5-6 2-2 1v2l-5 2-8 3v2l-3 1-1 3-5 3-3 3v2l-5 1-5 3v3l-4 1-6 3-3 3v2l-6 1-4 2-1 4-10 3-2 4-1 1-8 3-1 6-3-1-2 2h-5l-3 2v2h3l-1 3-12 3-2 5-4 4-5 1v2h-2l1 4-7-1-2 3-1 2-6 2v2l-5 1-8 5v3l-7-1-1 5h-3l-1 2h-8l-3 6-5 1 1 3-3 1-2-1v2h-2l-1 6h-4l-2 1 1 2-3-1h-2-4l1 4v2h-3l-5-2-1 4-5 1 2 4-7 3v-2l-5-1-2 5 1 1-9 4h-3v-2l-3 1-1 6-4-1-4 3-7 1v2l-10 3-5 2-3 1v3l-3-1v2l-4-1-5 2v2l-4 1v2l-11 3-10 4-7 3-24 8-1 2-10 3-9 4-7 2-13 5-3 1v2l-9 3-11 3-8 4-6 2-6 1v2l-12 3-9 3-2 2-6 2-6 1-5 2v3l18-4 24-7 34-11 29-10 21-7 11-4 8-3 24-10 20-8 25-11 23-10 19-10 19-9 15-8 16-8v-2l5-1 3-1v-2l6-1 2-1v-2l5-1 3-1v-2l6-1 2-1v-2l5-1 3-1v-2l7-1 2-3 3-2-2-2h10l1-3 4-2-1-3h13v-2h-4v-2l5-1 4-2 6-2v-3l5-1-2-1 1-2 8-1 1-3 7-1 4-1 1-2 3-1 1-3 3-2h4l5-5 8-3v-2l7-1 7-8 2-1v-2l3 1 4-3 4-1v-2l5-1v-2l6-2 1-2 4-2v-2l4-2 4-1v-2l5-1v-2l7-2 5-5 5-4 2 1v-3l5-1v-2l8-2 1-2v-3l6-3h4v-3l5-1 4-3v-3l5-1-1-3 5-1 8-6 7-2v-3l4-2v-2l8-2v-2l3-1v-2l8-3v-2l5-2v-2l4-2v-2h2l1 2 3-4-1-2 4-1 7-5v-2h7l3-4v-3l9-3 1-3h2l4-4 2-1v-2l5-1 2-2 5-2v-3h3v-3l5-2 5-3 5-5 9-5v-2l4-1 1-2-1-2h2v-2l6-2 1-3 3-1 3-3 7-4 5-5 14-12 7-5v-2l4-1 5-5 6-3v-3l6-2v-2h2l5-5 7-6 8-5 2-4 8-5v-3l6-2 4-2 2-4 4-2v-2l4-2 1-2 3-1 4-5v-2l4-1 9-7v-2l5-2 1-4 5-2v-2l4-2v-2l4-1 5-5 10-8v-2l5-2v-2l3-1 3-3 2-1v-2l3-1 10-10 11-9 7-7v-2l4-2 3-2v-2h2v-2l4-2v-2l4-1v-3l4-1v-2h2v-2l4-1 1-2 9-4 2-4 4-1h7l8 3 17 9 14 8 15 9 25 14 23 13 20 11 22 13 23 13 8 5 7 4 2 2 7 2v3l6 2 4 2 8-1v-3l5-2 4-3v-3l4-2 5-5 8-7v-2l4-1v-2l5-2 5-5v-2h3v-2l4-2v-2h2v-2h3v-2h2l5-5 3-2v-3l4-2 4-3v-3l4-2v-2l4-1v-3l4-1v-3l4-1v-3l4-1v-3l4-1 5-6 5-3 14-14 6-5v-2h2v-2h2v-2l4-2 14-14v-2l4-2v-2h2v-2h2v-2h2l7-8 11-11v-2h2v-2h2l7-8 1-3h2l5-5 1-3h2l5-5 6-8 5-5 5-4 1-3 7-6 3-3v-2l5-2v-3l5-1v-2l11-3 2-1 1 5 7 2 6 3h2v2l5 2v-2l5-1 2-4 1-8 3-5 7-28 3-16 3-15 1-12-3-7-7-2-4 1z" fill="#0E1B43"/>
<path transform="translate(1506,947)" d="m0 0h1l1 376-12 1h-105v-266l15-13 11-11 8-7 11-10 3-3v-2l8-7 14-13 2 1v1l27-27 2-6 4-1v-3l4-2 4-4z" fill="#203157"/>
<path transform="translate(1215,974)" d="m0 0 5 2 54 30 43 24 10 6 3 1 1 2v284l-1 1h-114l-1-288z" fill="#203157"/>
<path transform="translate(1234,541)" d="m0 0h20l9 1 17 6 7 2 11 6 4 4 4 1 1 2 4 2 12 12 10 15 3 7 3 1 5 16 2 10v25l-4 18-6 14-10 16-9 10-11 11-15 10-13 6-12 4-20 2-19-2-20-6-21-11-10-6-10-11-6-10-8-15-5-17-2-12v-22l4-19 6-15 6-11 8-10 12-12 14-9 12-6 11-4z" fill="#1F3056"/>
<path transform="translate(1116,1110)" d="m0 0h43v214h-117l-1-2v-211z" fill="#1F3056"/>
<path transform="translate(1286,37)" d="m0 0h140l35 1 7 1 6 7 7 24 18 73 8 35 6 25 3 5 10 2 21 6h7l7 2-2 2 13 3 2-1 16 5v1l-8-1 21 7-5-2 4-1 11 4-4 1 4 2 16 6 15 6-1 2 32 14 25 11-1-4h2l2 3 18-14 14-10 15-12 13-10 12-9 19-14 18-14 16-11 4-1v-2l4 1h2l5 2v3h4l11 8 13 11 3 2v2l4 2 16 13 1 4 7 4 4 1v2l4 2 10 9 11 8 5 6-1 1 6 3 10 11h4l4 3v2l4 2 10 8 5 5 3 2v2l2 1 25 25 11 9 1 5-6 12-6 10-15 26-17 32-14 25-8 11-9 10-3 3h-3v2h-2l-2 4-19 19-2-2 3-5h3v-2h2l1-5 5-2 2-6 3-1v-2h2l2-4 5-6h2l2-4 7-9 3-5h2l3-11 4-6 2-4h2v-5l3-2 2-5h2l1-7 4-5 5-11 6-9 2-6h2l2-5 6-12 2-7v-7l-5-8-5-4v-2l-4-2v-2l-4-2v-2h-3l-5-6-7-6-4-4v-2l-4-2-24-21-6-5v-2l-6-2-4-4v-2l-5-2-5-6-9-6v-2l-5-1v-2l-4-2-3-1-5-5-9-8-10-8-2-1v-2h-2v-2l-5-2-7-4v-2l-5-2-9-6-8-1-7 2-1 2-2 2-5 2-8 6-5 2-1 3-11 7h-2v2l-12 9-5 3h-2v2l-5 2v2l-7 4-5 5-3 1-1 2h-2l-1 2h-2v2l-7 3-1 2-10 5-3 3h-3v2l-6 4-7 2v2l-3 3-9-1-2-2-13-1-16-8-15-6-13-6-15-6-18-7-17-5-6-3-18-5-8-3-16-4-4-2-8-3v-2l-7-1-2-1v-2l-5-1-5-4-2-7h-2l-4-7-4-17-7-26-3-15-4-16-2-9-1-2v-5l-2-5-5-23-5-12-2-3v-3h-2l-3-5-5-3v2l-3-1-34-1h-56l-19-1h-33l-34-1h-19l-14 2-1 3-7 3-6 25-7 29-4 18-4 17-2 10-7 26-3 10-5 13-6 4-5 6-7 4-63 21-14 5-8 3-7 3h-3l-1 2-9 3-11 5-15 6-7 4-5 2-9 3-3 2-10 3-9 3h-7l-8-4-8-3-1-2-6-3v-2h-2v-2l-6-2v-2l-3-1-2-3-4-1-9-7-6-4-5-4-3-3-6-2v-2h-3l-4-4-4-1-5-5-2-1v-2l-4-2-15-9v-2l-5-2-9-7-8-4h-6l-9 4-5 4-7 3-2 3h-2v2h-3v2l-4 4h-2v2l-9 6h-2v2h-3v2l-5 2v2l-5 3-1 2-3 1-4 4h-2l-1 3-5 5h-3l-2 4-8 7-3 1v2l-6 5h-2v2l-8 7-3 1-1 3-6 5-3 3-4 3h-3l-1 4h-3l-2 4-9 7-2 3h-3v2l-5 5h-3v2l-4 1-1 5h-3v2h-2l-2 5h-4l-2 7v9l2 13h4l3 9v7l3-1 4 9 1 5-1 2 4 1 2 4v3h2l1 4 3 5 4 6 2 5v3h2l4 8 1 5h2l4 9 2 3 1 4 3 3 1 3 2 1 2 6 3 5v5h2l1 7-1 2h3l2 3v13l-1 3-4 4-2 6-6 10-4 8h-2l-3 9h-2l-2 5v2h-2l-1 5-1 2h-2l-1 4-8 16-4 9-4 8h-2l-1 6-9 19-4 9-6 17-4 8-6 15-9 14-5 5-7 2v2l-12 3v2l-9 1-19 2-28 5-27 3-18 3-22 4-7 3-1 3-4 4-1 3h-2l-1 12-4 23-3 18-3 35-4 34-2 23-1 12v3l-2 30-1 6v12l1 4-1 4 3 10 1 3 7 2 6 4 13 3 6 3v2l3-1 16 5 4 2 9 3 11 4 9 3 7 2 12 5 16 6 7 5-2 3-17-6-12-3-28-10-30-11-27-9-15-6-8-6v-22l4-65 4-46 6-51 8-56 4-8 4-3 18-4 38-5 41-6 27-3 29-5 4-2 22-55 15-33 15-29 10-17 12-19 14-24 1-3v-9l-13-26-10-17-6-12-12-22-14-26-4-7-2-1-3-9-3-6-2 1-1-4v-9h-2v5l-2-3-1-4v-7l-2-1 28-28 8-7 12-11 9-7v-3l4-2 5-3 1-4 5-1 10-10 8-7 7-7 8-7 10-9 22-18 13-11 11-9 13-10 13-9 22 14h3l7 5v3l14 10 5 3 4 1 1 4 5 1 2 2-1 1 18 13 6 1 1 4 17 12 14 10 12 9 4 2h6l38-18 39-16 20-8 37-12 15-5 15-4 12-4 8-5 3-7 8-31 10-42 9-41 7-30 6-11 3-3 3-1 16-1z" fill="#0E1B43"/>
<path transform="translate(1556,945)" d="m0 0h183l136 1v456l11 8 18 10 16 8 17 8 22 9 13 5 3 3 1 5 15 24 10 17 11 18 9 14 1 5-7 8-4 5-7 6-3 4h-2l-1 3h-2l-1 3-8 7-12 11-15 14-11 9-10 9-11 9-10 9-11 9-12 10-11 9-16 13-17 13-15 10-5-1-13-10-15-12-16-12-18-14-14-10-26-20-14-11-6-5v-2l4 2 7 1 5 4 3 1 1 2 4 1 2 4 5 4 4 2 5 5 3 1v2l4 2 5 3 3 1 1 3 3 1v2l5 2 3 1 1 2 3 1v3l6 2 7 5v2h4l5 5v2l6 2 1 3 4 1 1 2 11 6 7 4 5-1 2 1 2-4 8-2 5-5 13-10 8-6 4-2 5-5 7-6h4l2-4 5-4h2v-2h2l1-3 8-6h2l1-3h2v-2l6-4h2v-2l8-7 10-9 5-2 2-5 5-3 8-8h2v-2h2v-2l7-6 1-2 3-1 2-3h2v-2l4-2 5-7 7-6 6-7v-14l-7-13-3-5-8-13-3-5v-2l-3-1-3-6-7-11-6-8-4-4-9-5-10-4-19-7-11-5-12-7-6-3-14-8-3-3-6-5v-2h-2l-3-6-3-3-2-15 1-11v-157l-1-26 1-27v-80l-1-3v-24l1-9-1-14v-57l-2-7-1-6-5-3-9-3-2 1v-2l-4 1-10-1h-4v-2l-7 1-13-1h-58l-6-1h-57l-31-1h-13l-13 1h-9l-3 1-5-1-33 2-10 5-2 4-1 10v85l-1 27 1 10v6l4 6 8 4 14 2 4 1h3 39l2-1v2l10-1 3 1 1-2 2 1 14 1 4 2-4 1 15 1v1l-38 1h-92v-152l1-25z" fill="#0E1C43"/>
<path transform="translate(1691,1119)" d="m0 0 4 2 1 1 3 23v111l-1 69-1 7-3 4h-3l-2 5-12 9h-2l-2 4-3 2h-3v2h-2v2l-3 2h-3l-1 3-6 3h-2l-1 3-11 7-10 7-9 6-11 6-7 4-10 6-7 3h-3v2l-11 5-18 8-7 3-9 4-15 5-4 2-20 5h-4l-1 2-14 3-6 2-23 4-9 2-45 6-45 1-26-1-9-1-15-1-10-2-12-1-5-1-19-3-9-1-9-2-28-7-7-3-10-3-4-2-12-3-9-5-17-6-4-3-10-4-5-3-7-2v-2l-5-2-9-4-19-11-3-3-8-4-5-4-7-3-11-7-7-6-6-4-10-8-6-4-5-5-13-12-7-4-10-10-5-4-6-7-5-5-5-6-9-9-5-7-4-4-7-8-4-6-3-3v-2l-4-2-2-5h-2l-3-5-2-7-6-3-1-3-4 1-6 1v2h-2l-1 4-6 1v2l-5 2-2 4-7 2-3 1-2 5-6 1-3 4-8 3-5 3-1 2h-3v2l-6 2-1 2-5 1-1 3-7 4h-2v2l-7 4-4 4-3 2h-3v2h-3v2h-3v2l-6 3h-2v2l-5 3-3 2-6 3-1 2h-2v2l-5 2h-3v2l-6 2v2l-7 1-2 4-5 1-1 3-6 3-2 3h-2l-1 3h-2v6l-1 1 5 3 3 6v2h-2v2l5-2 3 6v6h4l1 9v6l-2 4h-2l1 3-4 6-2 5-1 2h-2l-1 6-5 9-3 7-3 5-3 6-2 1-1 4-4 7-7 13-2 4-2 1-2 5-3 6h-2l-2 9-2 1-6 12-4 11h-2l-2 15v5h2l1 7h2l4 4 1 5h3l5 7v3l3-1 8 6v3l4 2 4 3 1 3 5 5-1 2-8-5-14-12-16-15-13-13-3-4v-7l3-5 3-9 12-21 6-12 12-22 8-14 9-18 1-4 5-5 4-9 9-18 2-3v-11l-1-4h-2l-5-9-5-4-3-4-1-4-4-5-2-9 10-6 8-4 18-11 26-15 14-9 20-13 11-7 10-7 11-7 5-4 9-5 11-8 3-1v-2l5-2v-3l4-3 6-1 4-2 13-13 5 5 3 5 2 6 2 2 1-3 3 7 2 5 7 8 4 4 5 4 9 11 6 6v2h2v2h2l7 8v2l4 2v2l4 2v2l4 2 4 4v2l4 2 7 7 2 1v2l4 2 13 12 11 8v2l4 2 7 6 1 2 5 2v3l19 13 15 9 21 12 23 12 22 10 26 10 25 8 28 7 36 7 30 4 25 2 26 1h18l31-2 39-5 23-4 29-7 28-8 27-10 19-8 30-14 23-13 22-14 19-13 16-12 10-8 8-7 1-205-3-1h3z" fill="#0E1C44"/>
<path transform="translate(1506,947)" d="m0 0h1l1 376-12 1h-105v-266l15-13 11-11 8-7 11-10 3-3v-2l8-7 14-13 2 1v1l27-27 2-6 4-1v-3l4-2 4-4zm-15 29-3 2v3h-2v2l-4 2-6 5v2l-4 2-4 4v2l-5 1-2 3-1 3-5 2-5 7-5 5-3 1v2l-4 1v2h-2v2l-3 1v2l-4 2-4 4v2h-3l-4 4v2l-4 2v2h-2v2h-2l-8 10-2 13 1 7v13l1 3v8l-1 10v10l1 5v12l-1 9v12l1 5v71l-1 8v24l-1 6 1 16 1 7 1 12 3 2 8 2 37 1h23l18-1 5-4 1-11 1-9v-27l-1-4 1-6v-22l1-4-1-21v-20l1-3-1-33 1-49v-128z" fill="#0E1B43"/>
<path transform="translate(1215,974)" d="m0 0 5 2 54 30 43 24 10 6 3 1 1 2v284l-1 1h-114l-1-288zm16 24-3 4-3 15v7l-1 10v8l-1 3v132l1 6-1 10 1 6-1 2 1 11v21l1 7v46l1 6v13l3 5 3 2 18 4 13 1v-2l7 2h39l7-1 2-6 2-1 2-19 1-24v-82l1-3-1-12v-20l-1-34v-55l-1-14-2-5-4-2h-4l-1-3-10-5-5-1-1-3-20-10h-3v-2l-6-3h-2v-2l-8-3-10-5-9-2z" fill="#0E1C43"/>
<path transform="translate(1356,411)" d="m0 0h14l26 3 15 4-2 2h11l7-2 4-1 16 3 13 3 4 1 18 4 10 3 5 2 12 3 5 2 18 6 10 5 12 3 5 3 1 2 6 1 9 4 5 2 10 5 6 2 1 2 11 5v3l4-1 3 3 5 3 4 2v2l5 1 3 1 1 2 3 1v2l4 2 5 3 3 1 4 4 5 3 1 3 5 2v2l5 1 1 3 4 1v2h2l3 5 7 3 3 3v2l5 2 3 1 1 6 7 2v2l4 1v2l6 4 7 7 6 5 7 8 10 8 14 3 7 1 2-1h23l2-1 3 1 7-1 13-3h4v-2h2v-2l6-3 8-8h2l1-4h2v-2h2v-2l5-5 3-1 2-4 4-4h2l2-4 4-4h2l1-3 5-5h2l1-3h2v-2l7-6 4-4 4-1v2h-2l-1 5-4 4-2 5-13 13-7 8-7 7-7 8-15 16-8 9-5 3-4 1-23 1h-49l-5-3-12-14-12-13-8-8-8-7-13-11-14-11-20-15-27-18-25-15-16-8-17-8-32-13-30-10-27-8-30-7-28-4-22-2-19-1h-62l-25 2-31 5-44 11-32 10-21 8-21 9-27 13-21 12-24 15-23 16-14 11-14 12-12 11-13 12-15 15-7 8-8 8-8 7-11 14-7 10-10 13-11 18-4 6h-3l1-7 3-5h2l2-6 4-6 7-10 6-9 10-14h2v-2h2l1-4 9-10 1-2h2v-2l5-5 5-4 7-8 5-5 7-6 5-6 8-8h2v-2h2v-2l9-7h2l1-3h2v-2l6-4 3-3 5-3 5-5 4-1v-2l8-6 3-2h3v-2l7-4h3v-2l10-6h3v-2l9-6 6-2v-2l14-7 17-9 17-8 5-2h3v-2l10-4 6-2 10-4 1-1 9-2 7-3 14-4 7-1 8-3 10-3 9-1 20-6 11-1 21-1 22-3z" fill="#0F1C44"/>
<path transform="translate(755,489)" d="m0 0h3l2 3v13l-1 3-4 4-2 6-6 10-4 8h-2l-3 9h-2l-2 5v2h-2l-1 5-1 2h-2l-1 4-8 16-4 9-4 8h-2l-1 6-9 19-4 9-6 17-4 8-6 15-9 14-5 5-7 2v2l-12 3v2l-9 1-19 2-28 5-27 3-18 3-22 4-7 3-1 3-4 4-1 3h-2l-1 12-4 23-3 18-3 35-4 34-2 23-1 12v3l-2 30-1 6v12l1 4-1 4 3 10 1 3 7 2 6 4 13 3 6 3v2l3-1 16 5 4 2 9 3 11 4 9 3 7 2 12 5 16 6 7 5-2 3-17-6-12-3-28-10-30-11-27-9-15-6-8-6v-22l4-65 4-46 6-51 8-56 4-8 4-3 18-4 38-5 41-6 27-3 29-5 4-2 22-55 15-33 15-29 10-17 12-19 12-20 3-3 2-10z" fill="#0E1B43"/>
<path transform="translate(1116,1110)" d="m0 0h43v214h-117l-1-2v-211zm-31 10-16 1h-8l-8 2-3 5-1 45 1 23v50l-1 10 1 10v7l-1 4 1 12v12l-2 4 1 7 2 1 1 3 3 1h71l15-2 6-4 1-3 1-41v-125l-3-13-6-6-16-2z" fill="#0E1B43"/>
<path transform="translate(1234,541)" d="m0 0h20l9 1 17 6 7 2 11 6 4 4 4 1 1 2 4 2 12 12 10 15 3 7 3 1 5 16 2 10v25l-4 18-6 14-10 16-9 10-11 11-15 10-13 6-14 3h-11l5-5 9-3 14-7h6l2-4 4-1 1-3 5-1v-2l6-4 10-9 5-6 9-17 3-17 1-14v-19l-3-15-2-4-3-10-4-2-5-9-6-5-1-4h-3v-3h-3l-6-7-12-6-15-6-26-2-3-1-3 1-5-1v2l-11 1-12 3-1 2-13 5-14 10-8 8-1 2h-2l-2 5-6 10-1 3h-2l-1 6-3 10-2 5-2 16 1 16h2l2 10 5 14v3h2l3 6v2h2l1 3 10 10 6 7 10 8 7 4 2 1v2h7l3 6-4 1-10-3-15-8-10-6-10-11-6-10-8-15-5-17-2-12v-22l4-19 6-15 6-11 8-10 12-12 14-9 12-6 11-4z" fill="#0E1B43"/>
<path transform="translate(1183,1662)" d="m0 0h5l4 5v2l3 1 2 7 3 7 6 21 3 9 3 16 4 12 2 9 2 11 3 7 2 9 4 14 2 10 4 9 4 6 7 5 14 3 16 1 21 2h62l11-1 1 1 16-1h6l5-1 48-2 12-1 5-5h2v-2h2l1-7 3-2 1-7 3-9 2-10 2-4 5-25 2-6 8-32 3-14v-2h2l1-9 3-9h2l2-6 4-4h1l-1 9-11 44-9 39-8 36-6 23-4 6-4 4-10 2-38 1-61 1h-53l-44-1-22-1-7-1-4-5-5-13-11-44-12-50-13-51-1-4-5-2z" fill="#0E1C44"/>
<path transform="translate(909,669)" d="m0 0h3l-1 5-8 14-10 19-7 15-7 16-7 18-10 30-8 30-5 23-5 36-3 28-1 18-1 53-3 5-7 5-4 5-28 22-18 14-14 11-12 9-17 14-13 10-12 9-15 12-17 12-8 7-6 3-11 7h-5l-2-2-6-38-7-43 1-7 5 2 3 16 2 13 3 8 1 9h2l1 6-1 11 1 4 3 1 1 4 6-1 3-3 3-1 1-2 7-2 2-3h3l1-3 7-4h2l1-4 8-4 4-1-1-3 5-2 8-6 4-1v-2l8-7 5-5 10-6 2-3h3l2-4 5-2 1-2h3l2-4h2l1-3 6-3 5-5 5-4h2l2-4 8-4h2l2-5 8-5 4-4 6-2 1-5 6-3 5-5 4-3 1-3 1-31 2-31 1-6 2-21 4-30 5-21 2-13 1-10 5-12 4-16 3-5 4-16 5-8 3-11 4-8 2-2 3-11 3-3 5-14 3-5 2-1 4-11 4-4 4-10z" fill="#0D1B42"/>
<path transform="translate(735,1586)" d="m0 0 6 1 4 4 1 2 6 3 8 7v2h3l1 2 4 2 1 2 3 1 1 4 3-1 5 5 8 7 3 1 1 2 4 2 3 3 2 1v2l4 2 8 6 5 3 15 12 2 1v2l5 2 4 4 9 5 2 2 1 2h14l5-3h3l1-2 4-2h3v-2h2v-2l6-3 3-1 2-4 12-8h3l1-3 4-3h2v-2l5-1v-2l4-1v-2h2v-2l5-1v-2l11-7 1-2 5-2 1-2h3v-2l6-4 3-3 10-7 6-5 11-7 11-3 5 4 10 3 11 4 9 4 3 1v2h4v2l4 1 7 3 10 4 11 5 9 3 10 4 11 3 10 4 6 2 9 2 9 4 26 8 3 3-1 3 2 1-10-1-35-10-24-8-36-14-35-16-20-10-7-4-6 1-14 10-21 16-16 12-38 28-18 14-21 14-6 2-4 1-1-3-5-1-34-28-17-13-12-10-13-10-13-11-8-7-24-22z" fill="#0F1C44"/>
<path transform="translate(63,1454)" d="m0 0h5l2 1 5 1 1 3h8l9 10v2l5 2 2 6v7l-3 4h-2l-2 9-3 6-3 3-3 5-5 1-2 4-4 2-13 2-10-1-7-4v-2l-5-2-5-6v-2l-4-2-2-7-1-6 1-9 1-7 9-10 9-2 4-3h2v-2z" fill="#203157"/>
<path transform="translate(1430,417)" d="m0 0 17 3 13 3 4 1 18 4 10 3 5 2 12 3 5 2 18 6 10 5 12 3 5 3 1 2 6 1 9 4 5 2 10 5 6 2 1 2 11 5v3l4-1 3 3 5 3 4 2v2l5 1 3 1 1 2 3 1v2l4 2 5 3 3 1 4 4 5 3 1 3 5 2v2l5 1 1 3 4 1v2h2l3 5 7 3 3 3v2l5 2 3 1 1 6 7 2v2l4 1v2l6 4 7 7 6 5 7 8 10 8 14 3 7 1 2-1h23l2-1 3 1 7-1 13-3h4v-2h2v-2l6-3 8-8h2l1-4h2v-2h2v-2l5-5 3-1 2-4 4-4h2l2-4 4-4h2l1-3 5-5h2l1-3h2v-2l7-6 4-4 4-1v2h-2l-1 5-4 4-2 5-13 13-7 8-7 7-7 8-15 16-8 9-5 3-4 1-23 1h-49l-5-3-12-14-12-13-8-8-8-7-13-11-14-11-20-15-27-18-25-15-16-8-17-8-32-13-30-10-27-8-30-7-28-4-10-1v-1l9-2 7-2z" fill="#101D45"/>
<path transform="translate(1698,1591)" d="m0 0 3 1-1 3-4 1v2l-35 18-27 12-29 11-36 12-43 13h-5v-3l3-2 5-1 16-8 9-2 20-8 10-3 22-8 8-3 6-2 10-4h5l1-2 10-4h2v-2l4-1 2 1v-2l9-5 5-2h3v-2l8-4 8-3z" fill="#0F1C44"/>
<path transform="translate(1325,1036)" d="m0 0 5 1 1 2v95l-1 105-1 61h-1l-1-81-1-84-1-38v-56l4 1v-2h-2z" fill="#203157"/>
<path transform="translate(912,672)" d="m0 0 1 2-8 14-12 23-9 19-8 21-7 20-7 22-6 25-7 36-4 37-2 40v15l2 16v11l-9 8-6 4-2-1 9-7 1-3 1-53 2-28 5-41 3-18 7-30 8-27 9-26 8-20 8-18 10-19 8-15 4-6z" fill="#203157"/>
<path transform="translate(945,1255)" d="m0 0 4 1 9 10 7 8 2 4h2v2h2l7 8v2l4 2v2l4 2v2l4 2 4 4v2l4 2 7 7 2 1v2l4 2 13 12 11 8v2l4 2 7 6-4 1v-2l-5-2-14-11-10-8-14-12-36-36-8-10-10-13z" fill="#233459"/>
<path transform="translate(1312,568)" d="m0 0 4 2 7 7 10 15 3 7 3 1 5 16 2 10v25l-4 18-6 14-4 5 1-5 5-16 1-10v-27l-1-15-4-14-5-9v-3h-2v-3h-2l-1-3-5-5-7-8z" fill="#203157"/>
<path transform="translate(1517,208)" d="m0 0 12 3 18 5h7l7 2-2 2 13 3 2-1 16 5v1l-8-1 21 7-5-2 4-1 11 4-4 1 4 2 16 6 15 6v1h-8l-3-1v-2l-8-1-24-9-68-22-15-5-2-2z" fill="#25355A"/>
<path transform="translate(1158,1154)" d="m0 0h1v170h-117v-2l23-1h33l12 1 48 1-1-20v-26z" fill="#203157"/>
<path transform="translate(1555,946)" d="m0 0h1v99l-1 76 13-1h19l4-1 43 1v1l-33 1-15 1h-32v-152z" fill="#203157"/>
<path transform="translate(688,625)" d="m0 0 1 3-9 23-8 20-4 11-5 4-15 4-55 7-13 2-21 2h-12v-1l38-5 20-3 27-3 29-5 4-2 22-55z" fill="#203157"/>
<path transform="translate(1690,632)" d="m0 0h5l-2 2-34 11-47 14-41 11-10 2 2 3-5-2-3-2v-2l8-2 9-1 11-3 5-2 18-4 6-1 3-2 9-1 8-3 12-2v-2l12-3 13-4 9-3z" fill="#203157"/>
<path transform="translate(1219,81)" d="m0 0 1 4-5 24-11 49-10 39-4 9-4 4-13 5-46 14-15 5-4-1 45-15 15-4 12-4 8-5 3-7 8-31 10-42 9-41z" fill="#203157"/>
<path transform="translate(1286,37)" d="m0 0h140v1l-108 2h-36l-29-1v-1z" fill="#203157"/>
<path transform="translate(1482,78)" d="m0 0 2 4 21 86 6 28v2l-3 1-16-70-3-16-5-18-2-9z" fill="#203157"/>
<path transform="translate(496,746)" d="m0 0h1v14l-4 32-2 8-3 28-3 43-1 3-2 25h-1v-15l5-59 6-51z" fill="#203157"/>
<path transform="translate(633,1036)" d="m0 0h2l7 43 6 38 1 1h5l11-7h3l-13 12-5 1-2-1-1 2-2-7-9-61-3-16z" fill="#203157"/>
<path transform="translate(1677,726)" d="m0 0h1l-1 10-7 36-2 5-5-2-7-8-16-15-6-5v-2l4 2 10 9 11 8 5 5v2h4l8-41z" fill="#203157"/>
<path transform="translate(1844,184)" d="m0 0 5 2 16 13 9 7v2l4 2 16 13 1 2-3 1-5-5-3-1-7-7-5-3-4-4v-2l-4-1-2-4-4-2-9-6v-2l-4-2z" fill="#54617E"/>
<path transform="translate(964,599)" d="m0 0v3l-11 13-10 14-9 12-16 24-2-1 10-16 4-6 9-12 7-10 9-11z" fill="#203157"/>
<path transform="translate(697,1494)" d="m0 0 1 2-8 15-4 11v16l3 6 3 3-1 2-9-9-3-4v-7l3-5 3-9z" fill="#203157"/>
<path transform="translate(1600,658)" d="m0 0 2 3-8 3-28 7-5 1 2 3-5-2-3-2v-2l8-2 9-1 11-3 5-2z" fill="#203157"/>
<path transform="translate(1490,962)" d="m0 0 2 3-7 8-23 23-2-1 2-2 2-5 14-14 6-4z" fill="#C7CBD4"/>
<path transform="translate(1234,541)" d="m0 0h20l9 1 14 5-4 1-19-4h-22l-17 4h-5l2-2 14-4z" fill="#203157"/>
<path transform="translate(685,337)" d="m0 0 1 2v18l2 5v5l-3 1-1-4v-9h-2v5l-2-3-1-4v-7l-2-1z" fill="#26375C"/>
<path transform="translate(2008,325)" d="m0 0 4 2 8 7-1 6-5 10-12 20-1-2 10-19 2-7v-11z" fill="#203157"/>
<path transform="translate(1902,231)" d="m0 0 4 1v2l4 2 10 9 11 8 5 6-5-1-4-4-5-3-7-6v-2l-5-2-3-3v-2l-5-2z" fill="#4B5977"/>
<path transform="translate(1952,273)" d="m0 0 4 2 3 2v2l4 2 10 8 5 5 3 2v2l2 1 3 5-4-2-14-12-12-10z" fill="#324164"/>
<path transform="translate(708,1561)" d="m0 0 5 1 7 5v3l4 2 4 3 1 3 5 5-1 2-4-2-5-6-11-9-5-5z" fill="#0D1A42"/>
<path transform="translate(747,1366)" d="m0 0 5 5 3 4 1 3v9l-7 16-9 16-1-3 12-24 2-3v-11l-1-4h-2l-3-6z" fill="#203157"/>
<path transform="translate(671,1255)" d="m0 0h2v2l2 1-11 4-14 9h-2v2l3 1-11 3-11 7-4 1v-2l8-4 16-10 11-7 6-4h3v-2z" fill="#203157"/>
<path transform="translate(606,1295)" d="m0 0h2v2l3 1-9 2-7 4v2l-11 4-5 2v2l-12 6-1 2-7 1 5-4 9-5 13-8 11-6z" fill="#203157"/>
<path transform="translate(1162,697)" d="m0 0 5 5 7 8 5 5 9 7h-3l-9-5-10-11-4-7z" fill="#203157"/>
<path transform="translate(1912,492)" d="m0 0 3 1-9 10-6 6h-2v2h-2v2h-2l2-5h2v-2h2l1-4 5-5z" fill="#0D1A42"/>
<path transform="translate(1461,992)" d="m0 0 2 1-9 10-5 5-7 6h-3v-2l8-7z" fill="#4B5877"/>
<path transform="translate(731,1338)" d="m0 0 2 1 1 7 5 6v2h2l6 12-6-4-4-5-1-4-4-5-2-9z" fill="#203157"/>
<path transform="translate(1547,828)" d="m0 0v3l-3 5-4 4-2 1-4 6-5 2-4 2 6-7z" fill="#29395D"/>
<path transform="translate(710,1230)" d="m0 0 2 1-10 7-4 2 1 2-8 3-16 10-2-1 15-10z" fill="#203157"/>
<path transform="translate(917,1216)" d="m0 0 5 3 4 7 1 6-3-3-4-6-4-1-9 8-2-1 10-10z" fill="#203157"/>
<path transform="translate(1312,568)" d="m0 0 4 2 7 7 7 10-1 3-2-1v-3h-2l-1-3-5-5-7-8z" fill="#475574"/>
<path transform="translate(1169,865)" d="m0 0 6 1 11 6-3 1-4-2-9-1-1 3-2-1v-2l-4 2z" fill="#203157"/>
<path transform="translate(1083,853)" d="m0 0 2 1-2 2v3l-12 10-2-2 8-8h2v-2h2z" fill="#5A6783"/>
<path transform="translate(2006,1550)" d="m0 0 2 1-7 8h-2l-1 3h-2l-1 3-8 7-4 2 6-7z" fill="#203157"/>
<path transform="translate(738,1419)" d="m0 0 1 2-12 22-4 7-1-2 10-20 1-4z" fill="#203157"/>
<path transform="translate(851,1684)" d="m0 0 4 2 9 4 12-2-3 3-6 2-4 1-1-3-5-1-6-5z" fill="#203157"/>
<path transform="translate(1690,632)" d="m0 0h5l-2 2-21 7-4-1 2-2 12-3z" fill="#203157"/>
<path transform="translate(1154,785)" d="m0 0 5 2 6 2-1 3-3-1-3 1-5-3-4 1 2-4h3z" fill="#293A5E"/>
<path transform="translate(1615,654)" d="m0 0 4 1v2l-17 4-1-3 8-1 3-2z" fill="#2F3E62"/>
<path transform="translate(1517,208)" d="m0 0 12 3 4 2v2l-7-1-10-4z" fill="#435171"/>
<path transform="translate(1277,548)" d="m0 0 10 2 11 6-4 1-12-6-5-2z" fill="#314063"/>
<path transform="translate(814,1158)" d="m0 0 2 1v3l-9 4-6 5-2-1 3-4 9-5z" fill="#203157"/>
<path transform="translate(1844,184)" d="m0 0 5 2 7 6 1 3-8-4v-2l-4-2z" fill="#79839A"/>
<path transform="translate(1630,245)" d="m0 0 14 5v1h-8l-3-1v-2h-5l2-1z" fill="#445372"/>
<path transform="translate(490,1358)" d="m0 0 2 1 4 3-5 1h-9l3-1v-2z" fill="#26365B"/>
<path transform="translate(474,1366)" d="m0 0 2 1 1 1 3 2-5 1h-10l4-1v-2z" fill="#203157"/>
<path transform="translate(901,1231)" d="m0 0 2 1-8 6-5-1 5-5z" fill="#2D3D60"/>
<path transform="translate(1490,962)" d="m0 0 2 3-7 8-2 1 1-4z" fill="#C0C5CF"/>
<path transform="translate(849,1133)" d="m0 0 2 1-3 1v2l2 1-10 4-5 3v-2l8-5h2l2-4z" fill="#203157"/>
<path transform="translate(504,1351)" d="m0 0 7 2-4 2h-10l4-3z" fill="#203157"/>
<path transform="translate(1451 1e3)" d="m0 0m-1 1m-1 1m-1 1m-1 1m-1 1 2 3-6 5h-3v-2z" fill="#445372"/>
<path transform="translate(690,370)" d="m0 0 2 1 6 13-1 2-4-4-3-9z" fill="#203157"/>
<path transform="translate(520,1343)" d="m0 0 1 2h6l-3 2h-11l4-3z" fill="#203157"/>
<path transform="translate(909,1087)" d="m0 0h2v2l2 1-10 5-3 3-2-1 7-6 4-1z" fill="#203157"/>
<path transform="translate(1077,859)" d="m0 0 2 1-4 5-4 4-2-2z" fill="#3F4E6E"/>
<path transform="translate(1092,845)" d="m0 0h5l-6 7-3 3-2-1 5-5v-3z" fill="#2F3F62"/>
<path transform="translate(684,357)" d="m0 0h2l2 5v5l-3 1-1-4z" fill="#203157"/>
<path transform="translate(1697,629)" d="m0 0h2l-1 7-2 8h-1v-7l2-5-2-1z" fill="#203157"/>
</svg>
